<?xml version="1.0" encoding="utf-8"?>
<!-- Generator: Adobe Illustrator 22.0.1, SVG Export Plug-In . SVG Version: 6.00 Build 0)  -->
<svg version="1.2" baseProfile="tiny" id="Layer_1" xmlns="http://www.w3.org/2000/svg" xmlns:xlink="http://www.w3.org/1999/xlink"
	 x="0px" y="0px" viewBox="0 0 938.5 938.6" xml:space="preserve">
<path d="M620.8,186.5L620.8,186.5 M553,159.7L553,159.7 M937.1,510.8c1.7-25.5,2.1-52.5-0.2-78.2l-75.5-21.1l-22.7-85.1l56.3-55.6
	c-10.6-23.6-23.9-46.1-38.7-67.3L779.4,224l-62-62.1l21.2-76.8c-21.9-14.9-44-28.5-67.5-39.5l-54.9,55.7l-84.8-23.1L510.9,1.4
	c-25.5-1.7-52.5-2.1-78.2,0.2l-21.1,75.5l-85.1,22.7l-55.6-56.3c-23.6,10.6-46.1,23.9-67.3,38.7l20.6,76.9l-62.1,62l-76.8-21.2
	c-14.9,21.9-28.5,44-39.5,67.5l55.6,56.3l-23.1,84.8L1.4,427.7c-1.7,25.5-2.1,52.5,0.2,78.2l76.8,21.2l22.7,85.1l-56.3,55.6
	c10.6,23.6,23.9,46.1,38.7,67.3l76.9-20.6l62,62.1l-22.6,76.7c21.9,14.9,44,28.5,67.5,39.5l56.3-55.6l84.8,23.1l20.6,76.9
	c25.5,1.7,52.5,2.1,78.2-0.2l21.1-75.5l85.1-22.7l55.6,56.3c23.6-10.6,46.1-23.9,67.3-38.7l-20.6-76.9l62.1-62l76.8,21.2
	c14.9-21.9,28.5-44,39.5-67.5l-55.6-56.3l23.1-84.8L937.1,510.8L937.1,510.8z M620.8,186.5c100.7,54,169.1,160.3,169.1,282.8
	c0,177.3-143.4,320.6-320.6,320.6c-40,0-78.3-7.3-113.7-20.7l0,0l-2.5-76.7c3.1-41.8,67-47.8,67-119v-37c0,0-12.5-203.2-25-255.1
	h-10.5l0,227c0,9.8-11.5,17.7-21.2,17.7c-9.8,0-21.3-8.2-21.3-18v-141c0-78.6-5.3-85.7-5.3-85.7h-10.6c0,0-5.3,7.1-5.3,85.7v141
	c0,9.8-11.5,18-21.3,18c-9.8,0-21.2-7.9-21.2-17.7l0-227h-10.5c-12.4,51.9-25,255.1-25,255.1v37c0,71.3,64,77.2,67,119l-1.8,54.1
	l0,0c-95.4-55.5-159.5-158.8-159.5-277.4c0-177.3,143.4-320.6,320.6-320.6l0,0c29,0,57,3.8,83.7,11l6.3,121.2
	C367.5,349.5,517.8,671,587.7,671s220.2-321.6,28.4-390.2L620.8,186.5z"/>
</svg>
